<?xml version="1.0" encoding="UTF-8"?>
<svg id="Layer_1" xmlns="http://www.w3.org/2000/svg" version="1.1" viewBox="0 0 32 32">
  <!-- Generator: Adobe Illustrator 29.0.0, SVG Export Plug-In . SVG Version: 2.1.0 Build 186)  -->
  <defs>
    <style>
      .st0 {
        fill: #fff;
      }
    </style>
  </defs>
  <g id="lock">
    <path class="st0" d="M25,13v-4c0-5-4-9-9-9S7,4,7,9v4c-1.7,0-3,1.3-3,3v7c0,5,4,9,9,9h6c5,0,9-4,9-9v-7c0-1.7-1.3-3-3-3ZM9,9c0-3.9,3.1-7,7-7s7,3.1,7,7v4h-2v-4c0-2.8-2.2-5-5-5s-5,2.2-5,5v4h-2v-4ZM20,9h0v4h-8v-4h0c0-2.2,1.8-4,4-4s4,1.8,4,4ZM26,19v4c0,3.9-3.1,7-7,7h-6c-3.9,0-7-3.1-7-7v-7c0-.6.4-1,1-1h18c.6,0,1,.4,1,1v3Z"/>
    <path class="st0" d="M16,19c-1.1,0-2,.9-2,2s.3,1.8.7,2.7c.3.7.6,1.3,1.3,1.3s1.1-.6,1.3-1.3c.3-.9.7-2.1.7-2.7,0-1.1-.9-2-2-2Z"/>
  </g>
</svg>