<?xml version="1.0" encoding="UTF-8"?>
<svg id="Layer_1" xmlns="http://www.w3.org/2000/svg" version="1.1" viewBox="0 0 512 512">
  <!-- Generator: Adobe Illustrator 29.0.0, SVG Export Plug-In . SVG Version: 2.1.0 Build 186)  -->
  <defs>
    <style>
      .st0 {
        fill: #fff;
      }

      .st1 {
        fill: none;
      }

      .st2 {
        fill: #d6d6d6;
      }
    </style>
  </defs>
  <g id="_x32_50-paypal">
    <g>
      <path class="st0" d="M392.7,180.3c-21.8,63.5-73.5,90.8-142,91.6-44,.7-70.5-7.1-76.4,24.5-3.5,19.5-17.6,110.2-21.8,135.9-.3,1.8-1,2.5-3,2.5h-75.7c-7.7,0-13.3-6.7-12.3-14.1L112.2,98.9l8.7-55.4c0-.1,0-.2,0-.4l2.6-16.7c5.4,0,11.3,0,17.7,0,154.5,0,167.4-3.7,206.9,11.6,60.9,23.6,66.5,80.6,44.6,142.3Z"/>
      <path class="st2" d="M447.6,244.4c-16.7,84.7-72.9,113.9-144.9,113.9s-25-2.3-29.7,20c-15.7,98.8-13.9,87.1-14.6,92.6-1.8,8.7-9,15.1-17.7,15.1h-64.4c-7.2,0-11.8-5.9-10.8-13.1,0,0,4.2-27.3,24.8-155.2v-.8c1-5.2,1.8-10.6,2.7-16.1,0,0,0-.2,0-.3l1.5-9.2c2.8,0,6,0,9.6,0,54.7,0,166.9,10,207.4-105.4,3.7-11.3,6.9-22.5,8.9-34.1.5-3.1,1.2-2.6,3-1.3h0c28.8,21.5,30.7,58.6,24.1,93.9Z"/>
    </g>
    <polyline class="st1" points="123.5 26.4 120.9 43.1 112.2 98.9"/>
    <polyline class="st1" points="190.3 317.7 190.4 316.9 193 300.5 194.4 291.4 196.1 280.9"/>
  </g>
</svg>